<svg width="1920" height="775" viewBox="0 0 1920 775" fill="none" xmlns="http://www.w3.org/2000/svg">
<path d="M1088.35 320.965C1087.36 320.965 1086.4 320.445 1085.88 319.521L1050.41 256.314H922.612L956.531 316.754C957.295 318.116 956.811 319.838 955.45 320.602C954.089 321.365 952.365 320.881 951.602 319.521L915.32 254.871C914.829 253.995 914.838 252.926 915.345 252.059C915.852 251.193 916.781 250.661 917.784 250.661H1052.07C1053.09 250.661 1054.03 251.213 1054.53 252.105L1090.81 316.754C1091.58 318.116 1091.09 319.838 1089.73 320.602C1089.29 320.848 1088.82 320.965 1088.35 320.965Z" fill="#E9E9E9"/>
<path d="M1023.03 320.965C1022.04 320.965 1021.08 320.445 1020.56 319.522L984.28 254.872C983.516 253.511 984 251.787 985.361 251.024C986.721 250.259 988.444 250.743 989.209 252.105L1025.49 316.755C1026.26 318.117 1025.77 319.839 1024.41 320.603C1023.97 320.849 1023.5 320.965 1023.03 320.965Z" fill="#E9E9E9"/>
<path d="M990.075 319.551C989.58 319.551 989.1 319.292 988.841 318.83L952.559 254.181C952.177 253.5 952.419 252.639 953.1 252.257C953.779 251.874 954.641 252.116 955.024 252.797L991.305 317.447C991.688 318.128 991.445 318.99 990.764 319.371C990.546 319.494 990.308 319.551 990.075 319.551Z" fill="#E9E9E9"/>
<path d="M1057.09 319.552C1056.6 319.552 1056.12 319.293 1055.86 318.831L1019.58 254.181C1019.19 253.501 1019.44 252.64 1020.12 252.257C1020.8 251.875 1021.66 252.117 1022.04 252.798L1058.32 317.448C1058.71 318.129 1058.46 318.99 1057.78 319.372C1057.56 319.494 1057.33 319.552 1057.09 319.552Z" fill="#E9E9E9"/>
<path d="M1063.54 275.344H929.262C928.481 275.344 927.849 274.711 927.849 273.931C927.849 273.151 928.481 272.518 929.262 272.518H1063.54C1064.32 272.518 1064.95 273.151 1064.95 273.931C1064.95 274.711 1064.32 275.344 1063.54 275.344Z" fill="#E9E9E9"/>
<path d="M1076.88 299.106H942.595C941.815 299.106 941.182 298.472 941.182 297.692C941.182 296.912 941.815 296.279 942.595 296.279H1076.88C1077.66 296.279 1078.29 296.912 1078.29 297.692C1078.29 298.473 1077.66 299.106 1076.88 299.106Z" fill="#E9E9E9"/>
<path d="M885.485 320.966C884.496 320.966 883.536 320.446 883.018 319.522L846.736 254.872C846.245 253.996 846.254 252.927 846.761 252.06C847.269 251.194 848.197 250.662 849.2 250.662H906.302C907.862 250.662 909.128 251.928 909.128 253.488C909.128 255.049 907.862 256.315 906.302 256.315H854.027L887.947 316.755C888.71 318.117 888.226 319.839 886.865 320.603C886.428 320.849 885.953 320.966 885.485 320.966Z" fill="#E9E9E9"/>
<path d="M921.491 319.551C920.996 319.551 920.516 319.292 920.257 318.83L883.975 254.181C883.593 253.5 883.835 252.639 884.516 252.257C885.195 251.874 886.057 252.116 886.44 252.797L922.721 317.447C923.104 318.128 922.861 318.989 922.181 319.371C921.962 319.494 921.725 319.551 921.491 319.551Z" fill="#E9E9E9"/>
<path d="M915.15 275.344H860.678C859.898 275.344 859.265 274.711 859.265 273.931C859.265 273.151 859.898 272.518 860.678 272.518H915.15C915.93 272.518 916.563 273.151 916.563 273.931C916.563 274.711 915.931 275.344 915.15 275.344Z" fill="#E9E9E9"/>
<path d="M926.946 299.106H874.011C873.231 299.106 872.598 298.472 872.598 297.692C872.598 296.912 873.231 296.279 874.011 296.279H926.946C927.726 296.279 928.359 296.912 928.359 297.692C928.359 298.473 927.726 299.106 926.946 299.106Z" fill="#E9E9E9"/>
<path d="M815.075 320.966C814.086 320.966 813.126 320.445 812.608 319.521L776.326 254.872C775.835 253.996 775.844 252.927 776.351 252.06C776.858 251.194 777.787 250.662 778.79 250.662H835.891C837.452 250.662 838.718 251.928 838.718 253.488C838.718 255.049 837.452 256.315 835.891 256.315H783.617L817.536 316.756C818.3 318.117 817.816 319.839 816.455 320.603C816.018 320.849 815.543 320.966 815.075 320.966Z" fill="#E9E9E9"/>
<path d="M851.08 319.551C850.586 319.551 850.106 319.292 849.847 318.83L813.565 254.181C813.183 253.5 813.425 252.639 814.105 252.257C814.785 251.874 815.647 252.116 816.029 252.797L852.311 317.447C852.693 318.128 852.451 318.989 851.77 319.371C851.552 319.494 851.314 319.551 851.08 319.551Z" fill="#E9E9E9"/>
<path d="M844.739 275.344H790.267C789.487 275.344 788.854 274.711 788.854 273.931C788.854 273.151 789.487 272.518 790.267 272.518H844.739C845.519 272.518 846.152 273.151 846.152 273.931C846.152 274.711 845.52 275.344 844.739 275.344Z" fill="#E9E9E9"/>
<path d="M856.536 299.106H803.602C802.822 299.106 802.188 298.472 802.188 297.692C802.188 296.912 802.822 296.279 803.602 296.279H856.536C857.316 296.279 857.95 296.912 857.95 297.692C857.95 298.473 857.317 299.106 856.536 299.106Z" fill="#E9E9E9"/>
<path d="M745.101 320.966C744.113 320.966 743.152 320.446 742.634 319.522L706.352 254.872C705.861 253.996 705.87 252.927 706.377 252.06C706.885 251.194 707.813 250.662 708.817 250.662H765.918C767.479 250.662 768.744 251.928 768.744 253.488C768.744 255.049 767.479 256.315 765.918 256.315H713.644L747.563 316.755C748.327 318.117 747.843 319.839 746.481 320.603C746.044 320.849 745.57 320.966 745.101 320.966Z" fill="#E9E9E9"/>
<path d="M781.105 319.551C780.61 319.551 780.131 319.292 779.871 318.83L743.589 254.181C743.207 253.5 743.45 252.639 744.13 252.257C744.81 251.874 745.672 252.116 746.054 252.797L782.336 317.447C782.718 318.128 782.476 318.989 781.795 319.371C781.577 319.494 781.339 319.551 781.105 319.551Z" fill="#E9E9E9"/>
<path d="M774.765 275.344H720.293C719.513 275.344 718.88 274.711 718.88 273.931C718.88 273.151 719.513 272.518 720.293 272.518H774.765C775.545 272.518 776.178 273.151 776.178 273.931C776.178 274.711 775.545 275.344 774.765 275.344Z" fill="#E9E9E9"/>
<path d="M786.561 299.106H733.626C732.846 299.106 732.213 298.472 732.213 297.692C732.213 296.912 732.846 296.279 733.626 296.279H786.561C787.341 296.279 787.974 296.912 787.974 297.692C787.974 298.473 787.341 299.106 786.561 299.106Z" fill="#E9E9E9"/>
<path d="M1273.79 320.965C1272.8 320.965 1271.84 320.445 1271.32 319.52L1235.85 256.314H1108.05L1141.97 316.754C1142.73 318.116 1142.25 319.838 1140.89 320.602C1139.53 321.368 1137.8 320.881 1137.04 319.521L1100.76 254.871C1100.27 253.995 1100.28 252.926 1100.78 252.059C1101.29 251.193 1102.22 250.661 1103.22 250.661H1237.5C1238.53 250.661 1239.47 251.213 1239.97 252.105L1276.25 316.755C1277.01 318.116 1276.53 319.838 1275.17 320.602C1274.73 320.848 1274.26 320.965 1273.79 320.965Z" fill="#E9E9E9"/>
<path d="M1208.47 320.965C1207.48 320.965 1206.52 320.445 1206 319.522L1169.72 254.872C1168.95 253.511 1169.44 251.787 1170.8 251.024C1172.16 250.259 1173.88 250.743 1174.65 252.105L1210.93 316.755C1211.69 318.117 1211.21 319.839 1209.85 320.603C1209.41 320.849 1208.93 320.965 1208.47 320.965Z" fill="#E9E9E9"/>
<path d="M1175.51 319.552C1175.02 319.552 1174.54 319.293 1174.28 318.831L1138 254.181C1137.61 253.501 1137.86 252.64 1138.54 252.257C1139.22 251.875 1140.08 252.117 1140.46 252.798L1176.74 317.448C1177.12 318.129 1176.88 318.99 1176.2 319.372C1175.98 319.494 1175.75 319.552 1175.51 319.552Z" fill="#E9E9E9"/>
<path d="M1242.53 319.552C1242.03 319.552 1241.55 319.293 1241.29 318.831L1205.01 254.181C1204.63 253.501 1204.87 252.64 1205.55 252.257C1206.23 251.875 1207.09 252.117 1207.48 252.798L1243.76 317.448C1244.14 318.129 1243.9 318.99 1243.22 319.372C1243 319.494 1242.76 319.552 1242.53 319.552Z" fill="#E9E9E9"/>
<path d="M1248.97 275.344H1114.7C1113.92 275.344 1113.28 274.711 1113.28 273.931C1113.28 273.151 1113.92 272.518 1114.7 272.518H1248.97C1249.75 272.518 1250.39 273.151 1250.39 273.931C1250.39 274.711 1249.75 275.344 1248.97 275.344Z" fill="#E9E9E9"/>
<path d="M1262.32 299.106H1128.03C1127.25 299.106 1126.62 298.472 1126.62 297.692C1126.62 296.912 1127.25 296.279 1128.03 296.279H1262.32C1263.1 296.279 1263.73 296.912 1263.73 297.692C1263.73 298.473 1263.1 299.106 1262.32 299.106Z" fill="#E9E9E9"/>
<path d="M1585.85 727.133H1401.25C1400.23 727.133 1399.29 726.581 1398.79 725.69L1330.57 604.147C1330.08 603.272 1330.09 602.202 1330.6 601.336C1331.1 600.469 1332.03 599.938 1333.04 599.938H1517.63C1518.66 599.938 1519.6 600.489 1520.1 601.38L1588.32 722.923C1588.81 723.799 1588.8 724.869 1588.29 725.735C1587.78 726.601 1586.86 727.133 1585.85 727.133ZM1402.91 721.481H1581.03L1515.98 605.59H1337.86L1402.91 721.481Z" fill="#E9E9E9"/>
<path d="M1496.05 727.134C1495.06 727.134 1494.1 726.614 1493.58 725.69L1425.37 604.146C1424.61 602.784 1425.09 601.062 1426.45 600.298C1427.82 599.533 1429.54 600.019 1430.3 601.379L1498.51 722.923C1499.28 724.285 1498.79 726.008 1497.43 726.771C1496.99 727.017 1496.52 727.134 1496.05 727.134Z" fill="#E9E9E9"/>
<path d="M1450.75 725.72C1450.25 725.72 1449.77 725.46 1449.52 724.998L1381.31 603.454C1380.92 602.773 1381.17 601.912 1381.85 601.53C1382.53 601.147 1383.39 601.39 1383.77 602.071L1451.98 723.615C1452.36 724.296 1452.12 725.157 1451.44 725.539C1451.22 725.662 1450.98 725.72 1450.75 725.72Z" fill="#E9E9E9"/>
<path d="M1542.88 725.72C1542.39 725.72 1541.91 725.46 1541.65 724.998L1473.44 603.454C1473.05 602.773 1473.3 601.912 1473.98 601.53C1474.66 601.147 1475.52 601.39 1475.9 602.071L1544.11 723.615C1544.49 724.296 1544.25 725.157 1543.57 725.539C1543.35 725.662 1543.11 725.72 1542.88 725.72Z" fill="#E9E9E9"/>
<path d="M1533.4 632.281H1348.81C1348.03 632.281 1347.4 631.648 1347.4 630.868C1347.4 630.088 1348.03 629.455 1348.81 629.455H1533.4C1534.18 629.455 1534.82 630.088 1534.82 630.868C1534.82 631.648 1534.18 632.281 1533.4 632.281Z" fill="#E9E9E9"/>
<path d="M1551.75 664.948H1367.14C1366.36 664.948 1365.73 664.315 1365.73 663.535C1365.73 662.755 1366.36 662.122 1367.14 662.122H1551.75C1552.53 662.122 1553.16 662.755 1553.16 663.535C1553.16 664.315 1552.53 664.948 1551.75 664.948Z" fill="#E9E9E9"/>
<path d="M1570.08 697.615H1385.47C1384.69 697.615 1384.06 696.982 1384.06 696.202C1384.06 695.422 1384.69 694.789 1385.47 694.789H1570.08C1570.86 694.789 1571.49 695.422 1571.49 696.202C1571.49 696.982 1570.86 697.615 1570.08 697.615Z" fill="#E9E9E9"/>
<path d="M1471.34 775.497C1469.78 775.497 1468.51 774.231 1468.51 772.671V724.309C1468.51 722.748 1469.78 721.482 1471.34 721.482C1472.9 721.482 1474.17 722.748 1474.17 724.309V772.671C1474.17 774.231 1472.9 775.497 1471.34 775.497Z" fill="#E9E9E9"/>
<path d="M1804.56 727.133H1619.96C1618.94 727.133 1618 726.581 1617.5 725.69L1549.28 604.147C1548.79 603.272 1548.8 602.202 1549.31 601.336C1549.82 600.469 1550.74 599.938 1551.75 599.938H1736.35C1737.37 599.938 1738.31 600.489 1738.81 601.38L1807.03 722.923C1807.52 723.799 1807.51 724.869 1807 725.735C1806.5 726.601 1805.57 727.133 1804.56 727.133ZM1621.62 721.481H1799.74L1734.69 605.59H1556.57L1621.62 721.481Z" fill="#E9E9E9"/>
<path d="M1714.76 727.134C1713.77 727.134 1712.81 726.614 1712.29 725.69L1644.08 604.146C1643.32 602.784 1643.8 601.062 1645.16 600.298C1646.53 599.533 1648.25 600.019 1649.01 601.379L1717.22 722.923C1717.99 724.285 1717.5 726.008 1716.14 726.771C1715.7 727.017 1715.23 727.134 1714.76 727.134Z" fill="#E9E9E9"/>
<path d="M1669.46 725.72C1668.96 725.72 1668.48 725.46 1668.22 724.998L1600.02 603.454C1599.63 602.773 1599.88 601.912 1600.56 601.53C1601.24 601.147 1602.1 601.39 1602.48 602.071L1670.69 723.615C1671.07 724.296 1670.83 725.157 1670.15 725.539C1669.93 725.662 1669.69 725.72 1669.46 725.72Z" fill="#E9E9E9"/>
<path d="M1761.59 725.72C1761.1 725.72 1760.62 725.46 1760.36 724.998L1692.15 603.454C1691.76 602.773 1692.01 601.912 1692.69 601.53C1693.37 601.147 1694.23 601.39 1694.61 602.071L1762.82 723.615C1763.2 724.296 1762.96 725.157 1762.28 725.539C1762.06 725.662 1761.82 725.72 1761.59 725.72Z" fill="#E9E9E9"/>
<path d="M1752.11 632.281H1567.52C1566.74 632.281 1566.11 631.648 1566.11 630.868C1566.11 630.088 1566.74 629.455 1567.52 629.455H1752.11C1752.89 629.455 1753.53 630.088 1753.53 630.868C1753.53 631.648 1752.89 632.281 1752.11 632.281Z" fill="#E9E9E9"/>
<path d="M1770.46 664.948H1585.85C1585.07 664.948 1584.44 664.315 1584.44 663.535C1584.44 662.755 1585.07 662.122 1585.85 662.122H1770.46C1771.24 662.122 1771.87 662.755 1771.87 663.535C1771.87 664.315 1771.24 664.948 1770.46 664.948Z" fill="#E9E9E9"/>
<path d="M1788.79 697.615H1604.18C1603.4 697.615 1602.77 696.982 1602.77 696.202C1602.77 695.422 1603.4 694.789 1604.18 694.789H1788.79C1789.57 694.789 1790.2 695.422 1790.2 696.202C1790.2 696.982 1789.57 697.615 1788.79 697.615Z" fill="#E9E9E9"/>
<path d="M1690.05 775.497C1688.49 775.497 1687.22 774.231 1687.22 772.671V724.309C1687.22 722.748 1688.49 721.482 1690.05 721.482C1691.61 721.482 1692.88 722.748 1692.88 724.309V772.671C1692.88 774.231 1691.61 775.497 1690.05 775.497Z" fill="#E9E9E9"/>
<path d="M400.829 727.133H216.23C215.208 727.133 214.266 726.581 213.765 725.69L145.547 604.147C145.056 603.272 145.066 602.202 145.573 601.336C146.08 600.469 147.008 599.938 148.012 599.938H332.611C333.633 599.938 334.575 600.489 335.075 601.38L403.293 722.923C403.784 723.799 403.774 724.869 403.267 725.735C402.76 726.601 401.833 727.133 400.829 727.133ZM217.885 721.481H396.001L330.956 605.59H152.839L217.885 721.481Z" fill="#E9E9E9"/>
<path d="M311.027 727.134C310.038 727.134 309.079 726.614 308.56 725.69L240.349 604.146C239.586 602.784 240.07 601.062 241.431 600.298C242.791 599.533 244.515 600.018 245.279 601.379L313.49 722.924C314.253 724.285 313.769 726.008 312.408 726.771C311.971 727.017 311.496 727.134 311.027 727.134Z" fill="#E9E9E9"/>
<path d="M265.725 725.72C265.23 725.72 264.751 725.46 264.491 724.998L196.281 603.454C195.899 602.773 196.141 601.912 196.821 601.53C197.502 601.148 198.364 601.39 198.745 602.071L266.956 723.616C267.337 724.296 267.096 725.157 266.415 725.54C266.197 725.662 265.959 725.72 265.725 725.72Z" fill="#E9E9E9"/>
<path d="M357.856 725.72C357.361 725.72 356.881 725.46 356.622 724.998L288.411 603.454C288.03 602.773 288.271 601.912 288.952 601.53C289.633 601.148 290.494 601.39 290.876 602.071L359.086 723.616C359.469 724.296 359.226 725.157 358.546 725.54C358.327 725.662 358.089 725.72 357.856 725.72Z" fill="#E9E9E9"/>
<path d="M348.38 632.283H163.789C163.009 632.283 162.376 631.65 162.376 630.87C162.376 630.09 163.009 629.457 163.789 629.457H348.38C349.161 629.457 349.793 630.09 349.793 630.87C349.793 631.65 349.161 632.283 348.38 632.283Z" fill="#E9E9E9"/>
<path d="M366.723 664.948H182.119C181.339 664.948 180.706 664.315 180.706 663.535C180.706 662.755 181.339 662.122 182.119 662.122H366.723C367.503 662.122 368.136 662.755 368.136 663.535C368.136 664.315 367.504 664.948 366.723 664.948Z" fill="#E9E9E9"/>
<path d="M385.055 697.615H200.45C199.67 697.615 199.037 696.982 199.037 696.202C199.037 695.422 199.67 694.789 200.45 694.789H385.055C385.835 694.789 386.468 695.422 386.468 696.202C386.468 696.982 385.835 697.615 385.055 697.615Z" fill="#E9E9E9"/>
<path d="M286.317 775.497C284.757 775.497 283.491 774.231 283.491 772.671V724.309C283.491 722.748 284.757 721.482 286.317 721.482C287.878 721.482 289.144 722.748 289.144 724.309V772.671C289.144 774.231 287.878 775.497 286.317 775.497Z" fill="#E9E9E9"/>
<path d="M1157.37 55.2337C1123.25 55.2337 1095.49 27.4744 1095.49 -6.64682C1095.49 -40.768 1123.25 -68.5273 1157.37 -68.5273C1191.49 -68.5273 1219.25 -40.768 1219.25 -6.64682C1219.25 27.4744 1191.49 55.2337 1157.37 55.2337ZM1157.37 -62.8749C1126.36 -62.8749 1101.14 -37.6507 1101.14 -6.64682C1101.14 24.357 1126.36 49.5812 1157.37 49.5812C1188.37 49.5812 1213.6 24.357 1213.6 -6.64682C1213.6 -37.6507 1188.37 -62.8749 1157.37 -62.8749Z" fill="#E9E9E9"/>
<path d="M1157.37 152.292C1156.59 152.292 1155.96 151.66 1155.96 150.879V78.8799C1155.96 78.0992 1156.59 77.4668 1157.37 77.4668C1158.15 77.4668 1158.78 78.0992 1158.78 78.8799V150.879C1158.78 151.66 1158.15 152.292 1157.37 152.292Z" fill="#E9E9E9"/>
<path d="M1045.98 106.153C1045.62 106.153 1045.26 106.015 1044.98 105.739C1044.43 105.187 1044.43 104.293 1044.98 103.741L1095.89 52.8299C1096.44 52.2781 1097.34 52.2781 1097.89 52.8299C1098.44 53.3817 1098.44 54.2762 1097.89 54.828L1046.98 105.739C1046.7 106.015 1046.34 106.153 1045.98 106.153Z" fill="#E9E9E9"/>
<path d="M1268.76 106.153C1268.39 106.153 1268.03 106.015 1267.76 105.739L1216.84 54.828C1216.29 54.2762 1216.29 53.3817 1216.84 52.8299C1217.4 52.2781 1218.29 52.2781 1218.84 52.8299L1269.75 103.741C1270.31 104.293 1270.31 105.187 1269.75 105.739C1269.48 106.015 1269.12 106.153 1268.76 106.153Z" fill="#E9E9E9"/>
<path d="M874.766 139.069H659.763C658.202 139.069 656.937 137.804 656.937 136.243C656.937 134.682 658.202 133.417 659.763 133.417H873.781C874.02 133.329 874.275 133.271 874.541 133.249C898.879 131.304 917.944 110.637 917.944 86.1996C917.944 60.1643 896.762 38.9823 870.727 38.9823C849.093 38.9823 830.273 53.6095 824.96 74.5526C824.713 75.5242 823.971 76.2929 823.008 76.572C822.043 76.8518 821.006 76.5989 820.278 75.91C814.062 70.025 805.932 66.784 797.384 66.784C784.692 66.784 772.915 74.1704 767.38 85.6018C767.016 86.3543 766.337 86.9068 765.526 87.111C764.715 87.3145 763.856 87.1499 763.178 86.6589C758.752 83.4525 753.52 81.7574 748.049 81.7574C733.807 81.7574 722.22 93.3443 722.22 107.586C722.22 109.147 720.954 110.413 719.394 110.413C717.833 110.413 716.567 109.147 716.567 107.586C716.567 90.2277 730.69 76.105 748.049 76.105C753.64 76.105 759.025 77.5569 763.8 80.3288C770.751 68.5709 783.607 61.1308 797.383 61.1308C805.883 61.1308 814.029 63.8695 820.746 68.9185C828.031 47.7556 847.99 33.3291 870.725 33.3291C899.878 33.3291 923.595 57.0462 923.595 86.1989C923.595 99.5755 918.587 112.338 909.494 122.137C900.678 131.636 888.81 137.527 875.98 138.794C875.614 138.971 875.201 139.069 874.766 139.069Z" fill="#E9E9E9"/>
<path d="M1917.17 775.497H1858.78C1857.22 775.497 1855.95 774.232 1855.95 772.671C1855.95 771.11 1857.22 769.845 1858.78 769.845H1917.17C1918.73 769.845 1920 771.11 1920 772.671C1920 774.232 1918.73 775.497 1917.17 775.497Z" fill="#E9E9E9"/>
<path d="M1804.56 775.497H84.8829C83.3221 775.497 82.0566 774.232 82.0566 772.671C82.0566 771.11 83.3221 769.845 84.8829 769.845H1804.56C1806.12 769.845 1807.39 771.11 1807.39 772.671C1807.39 774.232 1806.12 775.497 1804.56 775.497Z" fill="#E9E9E9"/>
<path d="M47.2816 775.497H2.82624C1.26545 775.497 0 774.232 0 772.671C0 771.11 1.26545 769.845 2.82624 769.845H47.2816C48.8424 769.845 50.1078 771.11 50.1078 772.671C50.1078 774.232 48.8424 775.497 47.2816 775.497Z" fill="#E9E9E9"/>
<path d="M916.252 775.496H708.82C707.26 775.496 705.994 774.23 705.994 772.669C705.994 771.108 707.26 769.843 708.82 769.843H913.426V362.433H711.647V459.143C711.647 460.704 710.381 461.969 708.82 461.969C707.26 461.969 705.994 460.704 705.994 459.143V359.607C705.994 358.046 707.26 356.78 708.82 356.78H916.252C917.813 356.78 919.079 358.046 919.079 359.607V772.669C919.079 774.23 917.813 775.496 916.252 775.496Z" fill="#E9E9E9"/>
<path d="M1309.98 775.497H915.315C913.755 775.497 912.489 774.232 912.489 772.671V359.609C912.489 358.049 913.755 356.783 915.315 356.783H1309.98C1311.54 356.783 1312.81 358.049 1312.81 359.609V772.67C1312.81 774.232 1311.54 775.497 1309.98 775.497ZM918.142 769.845H1307.16V362.436H918.142V769.845Z" fill="#E9E9E9"/>
<path d="M1037.69 550.967H972.166C970.605 550.967 969.34 549.702 969.34 548.141V403.818C969.34 402.258 970.605 400.992 972.166 400.992H1037.69C1039.25 400.992 1040.51 402.258 1040.51 403.818V548.142C1040.51 549.702 1039.25 550.967 1037.69 550.967ZM974.992 545.315H1034.86V406.645H974.992V545.315Z" fill="#E9E9E9"/>
<path d="M1037.69 701.677H972.166C970.605 701.677 969.34 700.412 969.34 698.851V588.244C969.34 586.683 970.605 585.418 972.166 585.418H1037.69C1039.25 585.418 1040.51 586.683 1040.51 588.244V698.851C1040.51 700.412 1039.25 701.677 1037.69 701.677ZM974.992 696.025H1034.86V591.07H974.992V696.025Z" fill="#E9E9E9"/>
<path d="M1279.98 701.677H1214.46C1212.89 701.677 1211.63 700.412 1211.63 698.851V588.244C1211.63 586.683 1212.89 585.418 1214.46 585.418H1279.98C1281.54 585.418 1282.8 586.683 1282.8 588.244V698.851C1282.8 700.412 1281.54 701.677 1279.98 701.677ZM1217.28 696.025H1277.15V591.07H1217.28V696.025Z" fill="#E9E9E9"/>
<path d="M1158.83 550.967H1093.31C1091.75 550.967 1090.48 549.702 1090.48 548.141V403.818C1090.48 402.258 1091.75 400.992 1093.31 400.992H1158.83C1160.39 400.992 1161.66 402.258 1161.66 403.818V548.142C1161.66 549.702 1160.39 550.967 1158.83 550.967ZM1096.14 545.315H1156.01V406.645H1096.14V545.315Z" fill="#E9E9E9"/>
<path d="M1158.83 752.273H1093.31C1091.75 752.273 1090.48 751.007 1090.48 749.447V588.244C1090.48 586.683 1091.75 585.418 1093.31 585.418H1158.83C1160.39 585.418 1161.66 586.683 1161.66 588.244V749.447C1161.66 751.007 1160.39 752.273 1158.83 752.273ZM1096.14 746.62H1156.01V591.07H1096.14V746.62Z" fill="#E9E9E9"/>
<path d="M1279.98 550.967H1214.46C1212.89 550.967 1211.63 549.702 1211.63 548.141V403.818C1211.63 402.258 1212.89 400.992 1214.46 400.992H1279.98C1281.54 400.992 1282.8 402.258 1282.8 403.818V548.142C1282.8 549.702 1281.54 550.967 1279.98 550.967ZM1217.28 545.315H1277.15V406.645H1217.28V545.315Z" fill="#E9E9E9"/>
<path d="M901.911 362.436H700.344C698.783 362.436 697.518 361.17 697.518 359.609V318.138C697.518 316.577 698.783 315.312 700.344 315.312H901.911C903.471 315.312 904.737 316.577 904.737 318.138V359.609C904.737 361.17 903.471 362.436 901.911 362.436ZM703.17 356.783H899.084V320.964H703.17V356.783Z" fill="#E9E9E9"/>
<path d="M1319.11 362.436H901.91C900.349 362.436 899.084 361.17 899.084 359.609V318.138C899.084 316.577 900.349 315.312 901.91 315.312H1319.11C1320.67 315.312 1321.93 316.577 1321.93 318.138V359.609C1321.93 361.17 1320.67 362.436 1319.11 362.436ZM904.736 356.783H1316.28V320.964H904.736V356.783Z" fill="#E9E9E9"/>
<path d="M858.213 775.497H617.123C615.562 775.497 614.297 774.232 614.297 772.671V566.141C614.297 564.58 615.562 563.314 617.123 563.314H858.213C859.774 563.314 861.04 564.58 861.04 566.141V772.671C861.04 774.232 859.775 775.497 858.213 775.497ZM619.949 769.845H855.387V568.967H619.949V769.845Z" fill="#E9E9E9"/>
<path d="M617.123 775.497H450.129C448.568 775.497 447.303 774.232 447.303 772.671V566.141C447.303 564.58 448.568 563.314 450.129 563.314H617.123C618.684 563.314 619.949 564.58 619.949 566.141V772.671C619.949 774.232 618.684 775.497 617.123 775.497ZM452.955 769.845H614.297V568.967H452.955V769.845Z" fill="#E9E9E9"/>
<path d="M617.123 568.964H450.129C449.049 568.964 448.063 568.349 447.589 567.378C447.116 566.407 447.236 565.25 447.901 564.399L531.398 457.404C531.933 456.717 532.755 456.316 533.626 456.316C534.496 456.316 535.318 456.717 535.853 457.404L619.35 564.399C620.015 565.25 620.136 566.407 619.662 567.378C619.189 568.349 618.204 568.964 617.123 568.964ZM455.92 563.312H611.333L533.626 463.737L455.92 563.312Z" fill="#E9E9E9"/>
<path d="M650.1 550.964C649.259 550.964 648.427 550.59 647.87 549.876L592.496 478.909C591.536 477.678 591.756 475.902 592.986 474.943C594.216 473.981 595.992 474.201 596.953 475.432L652.326 546.398C653.286 547.629 653.066 549.406 651.836 550.365C651.32 550.769 650.707 550.964 650.1 550.964Z" fill="#E9E9E9"/>
<path d="M742.49 550.964C741.649 550.964 740.817 550.59 740.259 549.876L684.886 478.909C683.926 477.678 684.146 475.902 685.376 474.943C686.607 473.981 688.382 474.201 689.342 475.432L744.715 546.398C745.676 547.629 745.456 549.406 744.226 550.365C743.71 550.769 743.097 550.964 742.49 550.964Z" fill="#E9E9E9"/>
<path d="M714.803 549.552C714.382 549.552 713.966 549.364 713.688 549.008L658.315 478.041C657.834 477.425 657.945 476.537 658.559 476.057C659.175 475.576 660.063 475.687 660.543 476.302L715.916 547.269C716.396 547.884 716.286 548.772 715.671 549.253C715.413 549.455 715.107 549.552 714.803 549.552Z" fill="#E9E9E9"/>
<path d="M684.207 549.552C683.787 549.552 683.371 549.364 683.092 549.008L627.719 478.041C627.239 477.425 627.349 476.537 627.964 476.057C628.58 475.576 629.467 475.687 629.947 476.302L685.32 547.269C685.8 547.884 685.69 548.772 685.075 549.253C684.818 549.455 684.512 549.552 684.207 549.552Z" fill="#E9E9E9"/>
<path d="M792.847 549.552C792.427 549.552 792.01 549.364 791.732 549.008L736.359 478.041C735.879 477.425 735.988 476.537 736.603 476.057C737.22 475.576 738.107 475.687 738.587 476.302L793.96 547.269C794.44 547.884 794.33 548.772 793.715 549.253C793.458 549.455 793.152 549.552 792.847 549.552Z" fill="#E9E9E9"/>
<path d="M769.116 549.552C768.696 549.552 768.28 549.364 768.001 549.008L712.628 478.041C712.148 477.425 712.258 476.537 712.873 476.057C713.489 475.576 714.376 475.687 714.856 476.302L770.229 547.269C770.71 547.884 770.599 548.772 769.985 549.253C769.726 549.455 769.42 549.552 769.116 549.552Z" fill="#E9E9E9"/>
<path d="M858.265 568.964C857.424 568.964 856.591 568.591 856.035 567.876L772.538 460.881C771.578 459.651 771.797 457.875 773.027 456.915C774.257 455.954 776.033 456.174 776.993 457.404L860.49 564.399C861.451 565.629 861.231 567.405 860.001 568.365C859.485 568.769 858.872 568.964 858.265 568.964Z" fill="#E9E9E9"/>
<path d="M814.269 550.964C813.428 550.964 812.596 550.591 812.039 549.876L756.659 478.91C755.699 477.679 755.918 475.903 757.148 474.943C758.379 473.983 760.154 474.201 761.114 475.432L816.495 546.399C817.455 547.63 817.236 549.405 816.006 550.365C815.489 550.769 814.877 550.964 814.269 550.964Z" fill="#E9E9E9"/>
<path d="M774.765 461.969H533.626C532.065 461.969 530.8 460.703 530.8 459.143C530.8 457.582 532.065 456.316 533.626 456.316H774.765C776.326 456.316 777.591 457.582 777.591 459.143C777.591 460.703 776.326 461.969 774.765 461.969Z" fill="#E9E9E9"/>
<path d="M758.886 479.997H594.724C593.163 479.997 591.897 478.732 591.897 477.171C591.897 475.61 593.163 474.345 594.724 474.345H758.886C760.447 474.345 761.712 475.61 761.712 477.171C761.712 478.732 760.447 479.997 758.886 479.997Z" fill="#E9E9E9"/>
<path d="M784.936 513.395H622.411C620.85 513.395 619.585 512.129 619.585 510.568C619.585 509.008 620.85 507.742 622.411 507.742H784.937C786.498 507.742 787.763 509.008 787.763 510.568C787.763 512.129 786.497 513.395 784.936 513.395Z" fill="#E9E9E9"/>
<path d="M771.296 495.283H608.771C607.99 495.283 607.357 494.65 607.357 493.87C607.357 493.09 607.99 492.457 608.771 492.457H771.296C772.076 492.457 772.709 493.09 772.709 493.87C772.709 494.65 772.077 495.283 771.296 495.283Z" fill="#E9E9E9"/>
<path d="M799.682 531.418H637.156C636.376 531.418 635.743 530.785 635.743 530.005C635.743 529.225 636.376 528.592 637.156 528.592H799.682C800.462 528.592 801.095 529.225 801.095 530.005C801.095 530.785 800.463 531.418 799.682 531.418Z" fill="#E9E9E9"/>
<path d="M814.266 550.963H650.097C648.536 550.963 647.271 549.698 647.271 548.137C647.271 546.576 648.536 545.311 650.097 545.311H814.266C815.827 545.311 817.092 546.576 817.092 548.137C817.092 549.698 815.827 550.963 814.266 550.963Z" fill="#E9E9E9"/>
<path d="M829.195 775.495H669.944C668.384 775.495 667.118 774.23 667.118 772.669V613.419C667.118 611.858 668.384 610.593 669.944 610.593H829.195C830.755 610.593 832.021 611.858 832.021 613.419V772.669C832.021 774.23 830.755 775.495 829.195 775.495ZM672.77 769.843H826.368V616.245H672.77V769.843Z" fill="#E9E9E9"/>
<path d="M829.195 630.89H669.944C669.164 630.89 668.531 630.257 668.531 629.477C668.531 628.697 669.164 628.063 669.944 628.063H829.195C829.975 628.063 830.608 628.697 830.608 629.477C830.608 630.257 829.975 630.89 829.195 630.89Z" fill="#E9E9E9"/>
<path d="M829.195 646.718H669.944C669.164 646.718 668.531 646.085 668.531 645.305C668.531 644.525 669.164 643.892 669.944 643.892H829.195C829.975 643.892 830.608 644.525 830.608 645.305C830.608 646.085 829.975 646.718 829.195 646.718Z" fill="#E9E9E9"/>
<path d="M829.195 662.547H669.944C669.164 662.547 668.531 661.914 668.531 661.134C668.531 660.354 669.164 659.721 669.944 659.721H829.195C829.975 659.721 830.608 660.354 830.608 661.134C830.608 661.914 829.975 662.547 829.195 662.547Z" fill="#E9E9E9"/>
<path d="M829.195 678.375H669.944C669.164 678.375 668.531 677.742 668.531 676.962C668.531 676.182 669.164 675.549 669.944 675.549H829.195C829.975 675.549 830.608 676.182 830.608 676.962C830.608 677.742 829.975 678.375 829.195 678.375Z" fill="#E9E9E9"/>
<path d="M829.195 694.202H669.944C669.164 694.202 668.531 693.569 668.531 692.789C668.531 692.009 669.164 691.376 669.944 691.376H829.195C829.975 691.376 830.608 692.009 830.608 692.789C830.608 693.569 829.975 694.202 829.195 694.202Z" fill="#E9E9E9"/>
<path d="M829.195 710.031H669.944C669.164 710.031 668.531 709.398 668.531 708.618C668.531 707.838 669.164 707.205 669.944 707.205H829.195C829.975 707.205 830.608 707.838 830.608 708.618C830.608 709.398 829.975 710.031 829.195 710.031Z" fill="#E9E9E9"/>
<path d="M829.195 725.859H669.944C669.164 725.859 668.531 725.226 668.531 724.446C668.531 723.666 669.164 723.033 669.944 723.033H829.195C829.975 723.033 830.608 723.666 830.608 724.446C830.608 725.226 829.975 725.859 829.195 725.859Z" fill="#E9E9E9"/>
<path d="M829.195 741.689H669.944C669.164 741.689 668.531 741.055 668.531 740.275C668.531 739.495 669.164 738.862 669.944 738.862H829.195C829.975 738.862 830.608 739.495 830.608 740.275C830.608 741.055 829.975 741.689 829.195 741.689Z" fill="#E9E9E9"/>
<path d="M829.195 757.517H669.944C669.164 757.517 668.531 756.884 668.531 756.104C668.531 755.324 669.164 754.69 669.944 754.69H829.195C829.975 754.69 830.608 755.324 830.608 756.104C830.608 756.884 829.975 757.517 829.195 757.517Z" fill="#E9E9E9"/>
<path d="M1037.69 461.969H972.166C970.605 461.969 969.34 460.703 969.34 459.143C969.34 457.582 970.605 456.316 972.166 456.316H1037.69C1039.25 456.316 1040.51 457.582 1040.51 459.143C1040.51 460.703 1039.25 461.969 1037.69 461.969Z" fill="#E9E9E9"/>
<path d="M1158.83 461.969H1093.31C1091.75 461.969 1090.48 460.703 1090.48 459.143C1090.48 457.582 1091.75 456.316 1093.31 456.316H1158.83C1160.39 456.316 1161.66 457.582 1161.66 459.143C1161.66 460.703 1160.39 461.969 1158.83 461.969Z" fill="#E9E9E9"/>
<path d="M1279.98 461.969H1214.46C1212.89 461.969 1211.63 460.703 1211.63 459.143C1211.63 457.582 1212.89 456.316 1214.46 456.316H1279.98C1281.54 456.316 1282.8 457.582 1282.8 459.143C1282.8 460.703 1281.54 461.969 1279.98 461.969Z" fill="#E9E9E9"/>
<path d="M1201.6 775.494H1055.07C1053.51 775.494 1052.24 774.229 1052.24 772.668V749.446C1052.24 747.886 1053.51 746.62 1055.07 746.62H1201.6C1203.16 746.62 1204.43 747.886 1204.43 749.446V772.668C1204.43 774.229 1203.16 775.494 1201.6 775.494ZM1057.89 769.842H1198.78V752.273H1057.89V769.842Z" fill="#E9E9E9"/>
<path d="M1076.91 775.494H1055.07C1053.51 775.494 1052.24 774.229 1052.24 772.668V749.446C1052.24 747.886 1053.51 746.62 1055.07 746.62H1076.91C1078.47 746.62 1079.74 747.886 1079.74 749.446V772.668C1079.74 774.229 1078.47 775.494 1076.91 775.494ZM1057.89 769.842H1074.08V752.273H1057.89V769.842Z" fill="#E9E9E9"/>
<path d="M1498.71 591.07C1498.7 591.07 1498.69 591.07 1498.67 591.07C1497.11 591.05 1495.86 589.769 1495.88 588.208L1500.5 217.473C1500.52 215.924 1501.78 214.682 1503.33 214.682C1503.34 214.682 1503.35 214.682 1503.36 214.682C1504.92 214.701 1506.17 215.982 1506.15 217.543L1501.54 588.278C1501.52 589.828 1500.26 591.07 1498.71 591.07Z" fill="#E9E9E9"/>
<path d="M1523.37 775.497H1496.41C1495.66 775.497 1494.93 775.194 1494.4 774.657C1493.87 774.119 1493.58 773.391 1493.59 772.636L1494.07 733.935C1494.09 732.374 1495.39 731.14 1496.93 731.145C1498.49 731.164 1499.74 732.445 1499.72 734.006L1499.27 769.846H1520.5L1520.06 734.017C1520.04 732.457 1521.29 731.176 1522.85 731.156C1524.39 731.157 1525.69 732.386 1525.71 733.947L1526.19 772.637C1526.2 773.392 1525.91 774.12 1525.38 774.657C1524.85 775.194 1524.12 775.497 1523.37 775.497Z" fill="#E9E9E9"/>
<path d="M1521.07 591.09C1519.52 591.09 1518.26 589.848 1518.24 588.299L1513.63 217.543C1513.61 215.982 1514.86 214.701 1516.42 214.682C1516.43 214.682 1516.44 214.682 1516.45 214.682C1518 214.682 1519.26 215.924 1519.28 217.473L1523.9 588.229C1523.92 589.79 1522.67 591.071 1521.11 591.091C1521.09 591.09 1521.08 591.09 1521.07 591.09Z" fill="#E9E9E9"/>
<path d="M315.515 588.217C315.503 588.217 315.491 588.217 315.479 588.217C313.918 588.198 312.669 586.917 312.688 585.356L317.133 228.45C317.152 226.89 318.445 225.626 319.994 225.659C321.554 225.678 322.804 226.959 322.784 228.52L318.339 585.426C318.32 586.975 317.059 588.217 315.515 588.217Z" fill="#E9E9E9"/>
<path d="M340.136 775.495H313.183C312.428 775.495 311.704 775.191 311.172 774.654C310.641 774.117 310.348 773.389 310.358 772.634L310.729 742.781C310.748 741.232 312.01 739.99 313.555 739.99C313.567 739.99 313.579 739.99 313.591 739.99C315.152 740.009 316.402 741.291 316.382 742.851L316.046 769.843H337.276L336.909 740.316C336.889 738.755 338.139 737.474 339.7 737.454C339.712 737.454 339.724 737.454 339.736 737.454C341.28 737.454 342.541 738.696 342.561 740.245L342.964 772.634C342.974 773.389 342.68 774.117 342.149 774.654C341.616 775.191 340.892 775.495 340.136 775.495Z" fill="#E9E9E9"/>
<path d="M337.908 596.699C336.363 596.699 335.101 595.457 335.083 593.908L330.532 228.52C330.513 226.959 331.763 225.678 333.323 225.659C333.335 225.659 333.347 225.659 333.359 225.659C334.904 225.659 336.166 226.901 336.184 228.45L340.734 593.838C340.754 595.399 339.504 596.68 337.944 596.7C337.932 596.699 337.92 596.699 337.908 596.699Z" fill="#E9E9E9"/>
<path d="M325.509 209.375C323.465 209.375 321.396 208.826 319.532 207.676C316.936 206.074 315.119 203.558 314.417 200.59C313.714 197.622 314.209 194.558 315.811 191.962C319.117 186.604 326.167 184.935 331.525 188.242C336.883 191.547 338.553 198.597 335.247 203.955C333.09 207.449 329.342 209.374 325.509 209.375ZM325.538 192.193C323.602 192.193 321.71 193.166 320.621 194.93C319.812 196.24 319.562 197.788 319.917 199.287C320.272 200.786 321.189 202.057 322.5 202.865C325.206 204.534 328.766 203.692 330.436 200.986C331.244 199.676 331.494 198.128 331.139 196.629C330.785 195.13 329.867 193.859 328.556 193.05C327.615 192.471 326.571 192.193 325.538 192.193Z" fill="#E9E9E9"/>
<path d="M325.486 220.395C321.376 220.396 317.336 219.258 313.751 217.045C308.652 213.899 305.084 208.955 303.704 203.126C302.323 197.296 303.296 191.279 306.443 186.18C312.937 175.655 326.783 172.376 337.307 178.872C342.406 182.019 345.974 186.962 347.354 192.791C348.734 198.62 347.762 204.638 344.616 209.737C341.47 214.835 336.526 218.403 330.697 219.783C328.967 220.193 327.22 220.395 325.486 220.395ZM325.556 181.187C319.925 181.187 314.42 184.015 311.252 189.148C308.899 192.962 308.172 197.463 309.205 201.824C310.237 206.184 312.906 209.882 316.72 212.235C320.532 214.589 325.034 215.317 329.394 214.283C333.755 213.251 337.452 210.582 339.806 206.769C342.159 202.955 342.886 198.454 341.853 194.094C340.821 189.733 338.152 186.036 334.338 183.683C331.6 181.992 328.56 181.187 325.556 181.187Z" fill="#E9E9E9"/>
<path d="M316.624 174.106C315.509 174.106 314.453 173.442 314.005 172.346L241.484 -5.58019C240.923 -6.95657 241.524 -8.53221 242.859 -9.18507C244.194 -9.83935 245.807 -9.34617 246.55 -8.05811C249.577 -2.80908 320.791 120.795 329.756 146.568C332.583 154.7 331.871 164.02 330.777 170.408C330.513 171.946 329.052 172.982 327.514 172.716C325.976 172.452 324.942 170.992 325.206 169.453C326.188 163.721 326.848 155.42 324.417 148.425C318.687 131.952 285.573 72.2071 263.007 32.2497L319.239 170.213C319.829 171.659 319.135 173.308 317.689 173.897C317.34 174.039 316.979 174.106 316.624 174.106Z" fill="#E9E9E9"/>
<path d="M194.349 376.182C193.89 376.182 193.425 376.07 192.994 375.834C191.625 375.084 191.124 373.367 191.873 371.997C192.581 370.706 263.372 241.963 280.962 220.71C286.081 214.513 293.784 210.417 299.345 208.072C300.783 207.466 302.441 208.141 303.047 209.579C303.653 211.017 302.979 212.674 301.541 213.281C296.564 215.379 289.709 218.996 285.319 224.311C270.343 242.407 211.713 347.547 196.832 374.713C196.316 375.651 195.348 376.182 194.349 376.182Z" fill="#E9E9E9"/>
<path d="M194.335 376.19C193.802 376.19 193.263 376.039 192.786 375.724C191.484 374.863 191.12 373.12 191.981 371.819C192.023 371.755 192.053 371.713 192.084 371.671L305.911 218.418C306.841 217.166 308.611 216.904 309.865 217.835C311.117 218.765 311.379 220.535 310.448 221.789L196.632 375.026C196.081 375.781 195.216 376.19 194.335 376.19Z" fill="#E9E9E9"/>
<path d="M542.359 231.302C542.105 231.302 541.847 231.268 541.589 231.195C535.738 229.534 398.76 190.71 372.417 188.374C365.595 187.771 358.314 190.045 353.405 192.06C351.961 192.653 350.31 191.963 349.717 190.519C349.125 189.075 349.814 187.424 351.258 186.831C356.749 184.577 364.964 182.037 372.917 182.745C399.784 185.126 537.261 224.09 543.1 225.748C544.602 226.175 545.49 227.742 545.064 229.243C544.711 230.487 543.588 231.302 542.359 231.302Z" fill="#E9E9E9"/>
<path d="M542.39 231.309C542.216 231.309 542.042 231.294 541.866 231.26L353.024 204.474C351.478 204.255 350.403 202.824 350.622 201.279C350.842 199.734 352.273 198.66 353.817 198.878L542.758 225.677C542.85 225.691 542.941 225.708 543.031 225.73C544.548 226.099 545.491 227.633 545.121 229.149C544.807 230.441 543.66 231.309 542.39 231.309Z" fill="#E9E9E9"/>
<path d="M516.486 648.131H473.947C472.387 648.131 471.121 646.866 471.121 645.305V602.766C471.121 601.205 472.387 599.939 473.947 599.939H516.486C518.047 599.939 519.313 601.205 519.313 602.766V645.305C519.313 646.866 518.048 648.131 516.486 648.131ZM476.774 642.479H513.66V605.592H476.774V642.479Z" fill="#E9E9E9"/>
<path d="M587.932 648.131H545.393C543.832 648.131 542.566 646.866 542.566 645.305V602.766C542.566 601.205 543.832 599.939 545.393 599.939H587.932C589.493 599.939 590.758 601.205 590.758 602.766V645.305C590.758 646.866 589.493 648.131 587.932 648.131ZM548.219 642.479H585.106V605.592H548.219V642.479Z" fill="#E9E9E9"/>
<path d="M1510.75 201.925C1506.47 201.925 1502.36 199.513 1500.41 195.399C1497.72 189.71 1500.15 182.887 1505.84 180.189C1511.53 177.491 1518.35 179.927 1521.05 185.615C1523.75 191.305 1521.31 198.128 1515.62 200.826C1514.05 201.572 1512.39 201.925 1510.75 201.925ZM1510.72 184.741C1509.89 184.741 1509.06 184.92 1508.26 185.297C1505.39 186.659 1504.16 190.105 1505.52 192.978C1506.88 195.85 1510.33 197.079 1513.2 195.718C1516.07 194.356 1517.3 190.91 1515.94 188.037C1514.96 185.959 1512.88 184.741 1510.72 184.741Z" fill="#E9E9E9"/>
<path d="M1510.75 212.948C1508.21 212.948 1505.66 212.511 1503.19 211.633C1497.55 209.619 1493.03 205.529 1490.46 200.116C1485.17 188.941 1489.95 175.54 1501.12 170.242C1506.53 167.675 1512.62 167.372 1518.27 169.385C1523.91 171.398 1528.43 175.488 1531 180.901C1533.56 186.314 1533.87 192.402 1531.85 198.045C1529.84 203.687 1525.75 208.208 1520.34 210.775C1517.29 212.22 1514.02 212.948 1510.75 212.948ZM1510.72 173.724C1508.27 173.724 1505.82 174.268 1503.54 175.349C1495.19 179.312 1491.61 189.336 1495.57 197.695C1497.49 201.744 1500.87 204.803 1505.09 206.309C1509.31 207.814 1513.87 207.586 1517.92 205.667C1521.97 203.747 1525.03 200.366 1526.53 196.146C1528.04 191.925 1527.81 187.371 1525.89 183.322C1523.97 179.273 1520.59 176.213 1516.37 174.708C1514.53 174.051 1512.62 173.724 1510.72 173.724Z" fill="#E9E9E9"/>
<path d="M1528.04 171.155C1527.36 171.155 1526.67 170.907 1526.13 170.406C1524.98 169.347 1524.91 167.56 1525.97 166.412C1529.91 162.137 1534.98 155.531 1536.74 148.339C1540.9 131.399 1545.61 63.2552 1548.42 17.4503L1520.55 163.804C1520.26 165.338 1518.77 166.344 1517.24 166.052C1515.71 165.76 1514.7 164.281 1514.99 162.747L1550.93 -25.9989C1551.21 -27.4586 1552.57 -28.4549 1554.05 -28.2762C1555.53 -28.0981 1556.61 -26.8072 1556.53 -25.3227C1556.22 -19.2717 1548.73 123.183 1542.23 149.686C1540.18 158.047 1534.51 165.48 1530.12 170.245C1529.56 170.849 1528.81 171.155 1528.04 171.155Z" fill="#E9E9E9"/>
<path d="M1305.25 269.148C1304.24 269.148 1303.27 268.609 1302.76 267.663C1302.02 266.289 1302.53 264.574 1303.91 263.834C1305.2 263.136 1434.59 193.633 1460.96 185.355C1468.63 182.939 1477.32 183.694 1483.26 184.751C1484.79 185.025 1485.82 186.492 1485.54 188.029C1485.27 189.566 1483.8 190.59 1482.27 190.316C1476.95 189.369 1469.23 188.675 1462.65 190.747C1437.2 198.738 1307.88 268.114 1306.59 268.809C1306.16 269.038 1305.7 269.148 1305.25 269.148Z" fill="#E9E9E9"/>
<path d="M1305.24 269.148C1304.14 269.148 1303.09 268.508 1302.64 267.434C1302.02 265.999 1302.68 264.343 1304.11 263.731C1304.18 263.704 1304.22 263.688 1304.26 263.673L1483.14 197.002C1484.6 196.456 1486.23 197.202 1486.78 198.663C1487.32 200.126 1486.58 201.753 1485.11 202.299L1306.25 268.963C1305.92 269.089 1305.58 269.148 1305.24 269.148Z" fill="#E9E9E9"/>
<path d="M1676.07 336.896C1675.28 336.896 1674.5 336.57 1673.94 335.933C1669.96 331.378 1576.18 224.312 1555.29 207.973C1549.9 203.755 1542.55 201.702 1537.33 200.723C1535.8 200.434 1534.79 198.958 1535.07 197.424C1535.36 195.889 1536.84 194.878 1538.37 195.168C1544.21 196.263 1552.48 198.602 1558.77 203.52C1580.08 220.184 1674.2 327.638 1678.19 332.204C1679.22 333.379 1679.1 335.167 1677.93 336.194C1677.39 336.665 1676.73 336.896 1676.07 336.896Z" fill="#E9E9E9"/>
<path d="M1676.07 336.912C1675.37 336.912 1674.68 336.652 1674.14 336.135L1530.26 210.931C1529.08 209.906 1528.95 208.121 1529.98 206.943C1531 205.767 1532.79 205.642 1533.97 206.666L1677.92 331.937C1678 332.001 1678.07 332.068 1678.13 332.139C1679.2 333.278 1679.15 335.077 1678.01 336.144C1677.46 336.657 1676.77 336.912 1676.07 336.912Z" fill="#E9E9E9"/>
<path d="M184.351 313.54C183.939 313.54 183.531 313.361 183.252 313.016C170.346 297.076 160.289 279.255 153.362 260.048C146.193 240.173 142.558 219.283 142.558 197.96C142.558 172.231 147.793 147.351 158.117 124.013C168.09 101.468 182.301 81.4468 200.355 64.5056C200.925 63.9714 201.819 64.0004 202.352 64.5692C202.887 65.1387 202.858 66.0325 202.289 66.5666C166.125 100.5 145.384 148.391 145.384 197.96C145.384 239.099 159.613 279.328 185.449 311.238C185.94 311.844 185.846 312.734 185.239 313.225C184.978 313.437 184.664 313.54 184.351 313.54Z" fill="#E9E9E9"/>
<path d="M300.442 379.211C300.378 379.211 300.312 379.207 300.247 379.198C284.024 376.956 268.186 372.538 253.173 366.067C252.456 365.758 252.126 364.927 252.435 364.209C252.744 363.493 253.576 363.162 254.292 363.471C269.071 369.841 284.663 374.191 300.635 376.398C301.408 376.505 301.947 377.219 301.841 377.992C301.743 378.7 301.137 379.211 300.442 379.211Z" fill="#E9E9E9"/>
<path d="M382.938 371.666C382.346 371.666 381.794 371.292 381.597 370.699C381.351 369.958 381.751 369.158 382.492 368.912C425.433 354.611 461.202 324.859 483.21 285.139C483.589 284.457 484.448 284.21 485.132 284.588C485.814 284.967 486.061 285.827 485.683 286.509C463.33 326.851 427 357.068 383.385 371.594C383.236 371.642 383.085 371.666 382.938 371.666Z" fill="#E9E9E9"/>
<path d="M487.395 117.053C486.881 117.053 486.384 116.771 486.135 116.281C455.185 55.5455 393.644 17.8152 325.528 17.8152C319.636 17.8152 313.693 18.1028 307.865 18.6702C307.091 18.7479 306.397 18.1777 306.321 17.4005C306.246 16.6233 306.814 15.9322 307.591 15.8566C313.51 15.2808 319.544 14.9883 325.527 14.9883C359.918 14.9883 393.431 24.5834 422.444 42.7356C450.666 60.3932 473.56 85.3814 488.653 114.998C489.007 115.693 488.73 116.544 488.035 116.898C487.829 117.003 487.61 117.053 487.395 117.053Z" fill="#E9E9E9"/>
<path d="M204.919 287.233C204.483 287.233 204.053 287.032 203.776 286.653C184.889 260.771 174.906 230.101 174.906 197.96C174.906 167.118 184.162 137.469 201.674 112.22C202.119 111.579 202.999 111.42 203.641 111.864C204.282 112.309 204.441 113.19 203.997 113.83C186.815 138.604 177.732 167.696 177.732 197.959C177.732 229.498 187.528 259.591 206.059 284.987C206.519 285.617 206.381 286.501 205.75 286.961C205.499 287.145 205.208 287.233 204.919 287.233Z" fill="#E9E9E9"/>
<path d="M291.419 344.664C291.312 344.664 291.204 344.652 291.096 344.627C277.82 341.521 265.022 336.611 253.054 330.031C252.37 329.655 252.12 328.795 252.496 328.111C252.872 327.428 253.732 327.178 254.415 327.553C266.157 334.011 278.715 338.829 291.739 341.875C292.499 342.052 292.971 342.812 292.793 343.572C292.641 344.225 292.06 344.664 291.419 344.664Z" fill="#E9E9E9"/>
<path d="M383.607 336.856C383.056 336.856 382.532 336.532 382.305 335.993C382 335.274 382.336 334.445 383.056 334.141C413.015 321.469 438.334 298.853 454.349 270.46C454.733 269.78 455.595 269.541 456.274 269.923C456.954 270.307 457.194 271.169 456.811 271.848C440.491 300.783 414.689 323.83 384.157 336.744C383.977 336.82 383.791 336.856 383.607 336.856Z" fill="#E9E9E9"/>
<path d="M473.913 183.609C473.199 183.609 472.585 183.069 472.509 182.343C464.991 110.741 407.378 55.2898 335.517 50.4951C334.738 50.4428 334.149 49.7694 334.201 48.9908C334.254 48.2115 334.926 47.6222 335.706 47.6752C371.029 50.0323 404.552 64.9033 430.097 89.5495C455.577 114.134 471.638 146.984 475.32 182.048C475.401 182.825 474.838 183.52 474.062 183.601C474.012 183.607 473.962 183.609 473.913 183.609Z" fill="#E9E9E9"/>
<path d="M1466.37 331.059C1466.23 331.059 1466.08 331.037 1465.94 330.991C1434.25 320.895 1406.58 300.028 1388.03 272.233C1387.6 271.584 1387.77 270.707 1388.42 270.273C1389.07 269.84 1389.95 270.015 1390.38 270.664C1408.57 297.927 1435.71 318.395 1466.8 328.298C1467.54 328.535 1467.95 329.33 1467.71 330.074C1467.52 330.675 1466.97 331.059 1466.37 331.059Z" fill="#E9E9E9"/>
<path d="M1554.15 331.355C1553.54 331.355 1552.98 330.967 1552.8 330.361C1552.56 329.616 1552.98 328.824 1553.73 328.592C1573.05 322.583 1590.6 312.744 1605.91 299.347C1606.5 298.832 1607.39 298.892 1607.9 299.48C1608.42 300.067 1608.36 300.961 1607.77 301.474C1592.17 315.133 1574.26 325.164 1554.56 331.292C1554.43 331.335 1554.28 331.355 1554.15 331.355Z" fill="#E9E9E9"/>
<path d="M1648.22 241.155C1648.06 241.155 1647.9 241.128 1647.74 241.071C1647.01 240.808 1646.63 239.999 1646.89 239.264C1652.48 223.651 1655.32 207.247 1655.32 190.508C1655.32 144.79 1633.32 101.268 1596.49 74.0877C1595.86 73.6242 1595.72 72.7396 1596.19 72.1115C1596.65 71.4833 1597.54 71.3498 1598.16 71.8133C1616.36 85.2386 1631.45 102.929 1641.8 122.97C1652.64 143.979 1658.14 166.701 1658.14 190.508C1658.14 207.573 1655.25 224.297 1649.55 240.218C1649.34 240.795 1648.8 241.155 1648.22 241.155Z" fill="#E9E9E9"/>
<path d="M1366.85 167.006C1366.77 167.006 1366.69 166.999 1366.61 166.986C1365.84 166.853 1365.32 166.122 1365.46 165.354C1375.26 108.357 1417.79 62.1952 1473.83 47.7517C1474.58 47.5552 1475.35 48.0117 1475.55 48.7677C1475.74 49.5237 1475.29 50.2939 1474.53 50.4889C1419.57 64.6554 1377.85 109.931 1368.24 165.833C1368.12 166.52 1367.53 167.006 1366.85 167.006Z" fill="#E9E9E9"/>
<path d="M1460.31 364.483C1460.18 364.483 1460.05 364.465 1459.92 364.426C1437.46 357.875 1416.73 347.15 1398.31 332.55C1380.08 318.107 1364.99 300.578 1353.46 280.447C1353.07 279.77 1353.3 278.906 1353.98 278.518C1354.66 278.13 1355.52 278.365 1355.91 279.042C1379.03 319.385 1416.25 348.745 1460.71 361.713C1461.46 361.932 1461.89 362.716 1461.67 363.464C1461.49 364.082 1460.93 364.483 1460.31 364.483Z" fill="#E9E9E9"/>
<path d="M1563.1 363.9C1562.5 363.9 1561.94 363.507 1561.75 362.898C1561.52 362.151 1561.94 361.362 1562.69 361.135C1583.44 354.824 1602.69 344.857 1619.91 331.506C1620.52 331.027 1621.41 331.138 1621.89 331.757C1622.37 332.373 1622.25 333.261 1621.64 333.739C1604.15 347.301 1584.59 357.428 1563.51 363.838C1563.38 363.88 1563.24 363.9 1563.1 363.9Z" fill="#E9E9E9"/>
<path d="M1673.73 267.743C1673.53 267.743 1673.33 267.7 1673.13 267.61C1672.43 267.28 1672.12 266.439 1672.45 265.732C1683.46 242.097 1689.05 216.787 1689.05 190.506C1689.05 127.299 1655.09 68.2321 1600.42 36.3556C1599.75 35.9628 1599.52 35.0973 1599.91 34.4232C1600.31 33.7492 1601.17 33.5209 1601.85 33.9145C1628.74 49.5966 1651.29 72.0765 1667.05 98.9237C1683.29 126.583 1691.87 158.251 1691.87 190.506C1691.87 217.203 1686.2 242.914 1675.01 266.925C1674.77 267.44 1674.26 267.743 1673.73 267.743Z" fill="#E9E9E9"/>
<path d="M1331 191.92C1330.22 191.92 1329.59 191.287 1329.59 190.507C1329.59 94.195 1404.86 14.7416 1500.94 9.624C1501.72 9.58372 1502.39 10.1801 1502.43 10.9601C1502.47 11.7394 1501.87 12.405 1501.09 12.4467C1406.51 17.4845 1332.41 95.6979 1332.41 190.508C1332.41 191.287 1331.78 191.92 1331 191.92Z" fill="#E9E9E9"/>
<path d="M143.97 19.2277H36.2217C34.661 19.2277 33.3955 17.9622 33.3955 16.4014C33.3955 14.8406 34.661 13.5752 36.2217 13.5752H143.97C145.531 13.5752 146.796 14.8406 146.796 16.4014C146.796 17.9622 145.531 19.2277 143.97 19.2277Z" fill="#E9E9E9"/>
<path d="M1796.85 431.94H1646.55C1644.99 431.94 1643.72 430.674 1643.72 429.113C1643.72 427.553 1644.99 426.287 1646.55 426.287H1796.85C1798.41 426.287 1799.67 427.553 1799.67 429.113C1799.67 430.674 1798.41 431.94 1796.85 431.94Z" fill="#E9E9E9"/>
<path d="M230.421 461.969H97.1583C95.5975 461.969 94.332 460.703 94.332 459.143C94.332 457.582 95.5975 456.316 97.1583 456.316H230.421C231.982 456.316 233.247 457.582 233.247 459.143C233.247 460.703 231.982 461.969 230.421 461.969Z" fill="#E9E9E9"/>
</svg>
